<mxfile host="app.diagrams.net" modified="2023-12-07T23:57:11.867Z" agent="Mozilla/5.0 (X11; Linux x86_64; rv:120.0) Gecko/20100101 Firefox/120.0" etag="UiWUCZ_BdReswOQ76h3G" version="22.1.7" type="device">
  <diagram name="Page-1" id="Page-1">
    <mxGraphModel dx="-1185" dy="694" grid="1" gridSize="10" guides="1" tooltips="1" connect="1" arrows="1" fold="1" page="1" pageScale="1" pageWidth="827" pageHeight="1169" math="0" shadow="0">
      <root>
        <mxCell id="0" />
        <mxCell id="1" parent="0" />
        <UserObject label="" tags="Соединительная_линия" id="269">
          <mxCell parent="1" vertex="1" visible="0">
            <mxGeometry as="geometry" />
          </mxCell>
        </UserObject>
        <UserObject label="" tags="Соединительная_линия" id="MkfiMtq0qwXdFDIC8DVh-330">
          <mxCell parent="1" vertex="1" visible="0">
            <mxGeometry x="1200" y="520" as="geometry" />
          </mxCell>
        </UserObject>
        <UserObject label="" tags="Соединительная_линия" id="MkfiMtq0qwXdFDIC8DVh-442">
          <mxCell parent="1" vertex="1" visible="0">
            <mxGeometry x="1470" y="1130" as="geometry" />
          </mxCell>
        </UserObject>
        <UserObject label="" tags="Фон" id="3eGt7si79daoKyPCbFKP-269">
          <mxCell style="vsdxID=314;fillColor=#FFFFFF;gradientColor=none;shape=stencil(UzV2Ls5ILEhVNTIoLinKz04tz0wpyVA1dlE1MsrMy0gtyiwBslSNXVWNndPyi1LTi/JL81Ig/IJEkEoQKze/DGRCBUSfoYEBSI+RQSUq3w2iOCczD49iPErJVIjXektLPRMzfMqBDIQ/IUGELIceJkAhSHgauwIA);strokeColor=#000000;strokeWidth=4;spacingTop=-2;spacingBottom=-2;spacingLeft=-2;spacingRight=-2;points=[];labelBackgroundColor=#ffffff;rounded=0;html=1;whiteSpace=wrap;" parent="1" vertex="1">
            <mxGeometry x="2034" y="1912.4" width="740" height="220" as="geometry" />
          </mxCell>
        </UserObject>
        <UserObject label="" tags="Фон" id="3eGt7si79daoKyPCbFKP-270">
          <mxCell style="vsdxID=315;fillColor=#FFFFFF;gradientColor=none;shape=stencil(fY9LDoAgDERP0z3SIyjeg0QUooJB/N1eSGMkJrib6bxpWsB61XJRwNkavBvVYbqgARvg3FitvAlRAQrAundeDd5ttiO/yEQmNbs9bTipx1KDsyt3LYGTsUWwYj/oExbgKN5r6JE8+14eR/Q1ihs=);strokeColor=#000000;strokeWidth=4;spacingTop=-2;spacingBottom=-2;spacingLeft=-2;spacingRight=-2;points=[];labelBackgroundColor=#ffffff;rounded=0;html=1;whiteSpace=wrap;" parent="1" vertex="1">
            <mxGeometry x="2294" y="1972.4" width="480" height="100" as="geometry" />
          </mxCell>
        </UserObject>
        <UserObject label="" tags="Фон" id="3eGt7si79daoKyPCbFKP-271">
          <mxCell style="vsdxID=316;edgeStyle=none;startArrow=none;endArrow=none;startSize=3;endSize=3;strokeWidth=4;strokeColor=#000000;spacingTop=-2;spacingBottom=-2;spacingLeft=-2;spacingRight=-2;verticalAlign=middle;html=1;labelBackgroundColor=#ffffff;rounded=0;" parent="1" edge="1">
            <mxGeometry relative="1" as="geometry">
              <Array as="points" />
              <mxPoint x="2294" y="2072.4" as="sourcePoint" />
              <mxPoint x="2294" y="2132.4" as="targetPoint" />
            </mxGeometry>
          </mxCell>
        </UserObject>
        <UserObject label="" tags="Фон" id="3eGt7si79daoKyPCbFKP-272">
          <mxCell style="vsdxID=317;edgeStyle=none;startArrow=none;endArrow=none;startSize=3;endSize=3;strokeWidth=4;strokeColor=#000000;spacingTop=-2;spacingBottom=-2;spacingLeft=-2;spacingRight=-2;verticalAlign=middle;html=1;labelBackgroundColor=#ffffff;rounded=0;" parent="1" edge="1">
            <mxGeometry relative="1" as="geometry">
              <Array as="points" />
              <mxPoint x="2574" y="1972.4" as="sourcePoint" />
              <mxPoint x="2574" y="2132.4" as="targetPoint" />
            </mxGeometry>
          </mxCell>
        </UserObject>
        <UserObject label="" tags="Фон" id="3eGt7si79daoKyPCbFKP-273">
          <mxCell style="vsdxID=318;edgeStyle=none;startArrow=none;endArrow=none;startSize=3;endSize=3;strokeColor=#000000;spacingTop=-2;spacingBottom=-2;spacingLeft=-2;spacingRight=-2;verticalAlign=middle;html=1;labelBackgroundColor=#ffffff;rounded=0;" parent="1" edge="1">
            <mxGeometry relative="1" as="geometry">
              <mxPoint as="offset" />
              <Array as="points" />
              <mxPoint x="2034" y="1932.4" as="sourcePoint" />
              <mxPoint x="2294" y="1932.4" as="targetPoint" />
            </mxGeometry>
          </mxCell>
        </UserObject>
        <UserObject label="" tags="Фон" id="3eGt7si79daoKyPCbFKP-274">
          <mxCell style="vsdxID=319;edgeStyle=none;startArrow=none;endArrow=none;startSize=3;endSize=3;strokeColor=#000000;spacingTop=-2;spacingBottom=-2;spacingLeft=-2;spacingRight=-2;verticalAlign=middle;html=1;labelBackgroundColor=#ffffff;rounded=0;" parent="1" edge="1">
            <mxGeometry relative="1" as="geometry">
              <mxPoint as="offset" />
              <Array as="points" />
              <mxPoint x="2034" y="1952.4" as="sourcePoint" />
              <mxPoint x="2294" y="1952.4" as="targetPoint" />
            </mxGeometry>
          </mxCell>
        </UserObject>
        <UserObject label="" tags="Фон" id="3eGt7si79daoKyPCbFKP-275">
          <mxCell style="vsdxID=320;edgeStyle=none;startArrow=none;endArrow=none;startSize=3;endSize=3;strokeColor=#000000;spacingTop=-2;spacingBottom=-2;spacingLeft=-2;spacingRight=-2;verticalAlign=middle;html=1;labelBackgroundColor=#ffffff;rounded=0;" parent="1" edge="1">
            <mxGeometry relative="1" as="geometry">
              <mxPoint as="offset" />
              <Array as="points" />
              <mxPoint x="2034" y="1972.4" as="sourcePoint" />
              <mxPoint x="2294" y="1972.4" as="targetPoint" />
            </mxGeometry>
          </mxCell>
        </UserObject>
        <UserObject label="" tags="Фон" id="3eGt7si79daoKyPCbFKP-276">
          <mxCell style="vsdxID=321;edgeStyle=none;startArrow=none;endArrow=none;startSize=3;endSize=3;strokeWidth=4;strokeColor=#000000;spacingTop=-2;spacingBottom=-2;spacingLeft=-2;spacingRight=-2;verticalAlign=middle;html=1;labelBackgroundColor=#ffffff;rounded=0;" parent="1" edge="1">
            <mxGeometry relative="1" as="geometry">
              <mxPoint as="offset" />
              <Array as="points" />
              <mxPoint x="2034" y="1992.4" as="sourcePoint" />
              <mxPoint x="2294" y="1992.4" as="targetPoint" />
            </mxGeometry>
          </mxCell>
        </UserObject>
        <UserObject label="" tags="Фон" id="3eGt7si79daoKyPCbFKP-277">
          <mxCell style="vsdxID=322;edgeStyle=none;startArrow=none;endArrow=none;startSize=3;endSize=3;strokeColor=#000000;spacingTop=-2;spacingBottom=-2;spacingLeft=-2;spacingRight=-2;verticalAlign=middle;html=1;labelBackgroundColor=#ffffff;rounded=0;" parent="1" edge="1">
            <mxGeometry relative="1" as="geometry">
              <mxPoint as="offset" />
              <Array as="points" />
              <mxPoint x="2034" y="2032.4" as="sourcePoint" />
              <mxPoint x="2294" y="2032.4" as="targetPoint" />
            </mxGeometry>
          </mxCell>
        </UserObject>
        <UserObject label="" tags="Фон" id="3eGt7si79daoKyPCbFKP-278">
          <mxCell style="vsdxID=323;edgeStyle=none;startArrow=none;endArrow=none;startSize=3;endSize=3;strokeColor=#000000;spacingTop=-2;spacingBottom=-2;spacingLeft=-2;spacingRight=-2;verticalAlign=middle;html=1;labelBackgroundColor=#ffffff;rounded=0;" parent="1" edge="1">
            <mxGeometry relative="1" as="geometry">
              <mxPoint as="offset" />
              <Array as="points" />
              <mxPoint x="2034" y="2072.4" as="sourcePoint" />
              <mxPoint x="2294" y="2072.4" as="targetPoint" />
            </mxGeometry>
          </mxCell>
        </UserObject>
        <UserObject label="" tags="Фон" id="3eGt7si79daoKyPCbFKP-279">
          <mxCell style="vsdxID=324;edgeStyle=none;startArrow=none;endArrow=none;startSize=3;endSize=3;strokeWidth=4;strokeColor=#000000;spacingTop=-2;spacingBottom=-2;spacingLeft=-2;spacingRight=-2;verticalAlign=middle;html=1;labelBackgroundColor=#ffffff;rounded=0;" parent="1" edge="1">
            <mxGeometry relative="1" as="geometry">
              <mxPoint as="offset" />
              <Array as="points" />
              <mxPoint x="2034" y="2012.4" as="sourcePoint" />
              <mxPoint x="2294" y="2012.4" as="targetPoint" />
            </mxGeometry>
          </mxCell>
        </UserObject>
        <UserObject label="" tags="Фон" id="3eGt7si79daoKyPCbFKP-280">
          <mxCell style="vsdxID=325;edgeStyle=none;startArrow=none;endArrow=none;startSize=3;endSize=3;strokeColor=#000000;spacingTop=-2;spacingBottom=-2;spacingLeft=-2;spacingRight=-2;verticalAlign=middle;html=1;labelBackgroundColor=#ffffff;rounded=0;" parent="1" edge="1">
            <mxGeometry relative="1" as="geometry">
              <mxPoint as="offset" />
              <Array as="points" />
              <mxPoint x="2034" y="2052.4" as="sourcePoint" />
              <mxPoint x="2294" y="2052.4" as="targetPoint" />
            </mxGeometry>
          </mxCell>
        </UserObject>
        <UserObject label="" tags="Фон" id="3eGt7si79daoKyPCbFKP-281">
          <mxCell style="vsdxID=326;edgeStyle=none;startArrow=none;endArrow=none;startSize=3;endSize=3;strokeColor=#000000;spacingTop=-2;spacingBottom=-2;spacingLeft=-2;spacingRight=-2;verticalAlign=middle;html=1;labelBackgroundColor=#ffffff;rounded=0;" parent="1" edge="1">
            <mxGeometry relative="1" as="geometry">
              <mxPoint as="offset" />
              <Array as="points" />
              <mxPoint x="2034" y="2092.4" as="sourcePoint" />
              <mxPoint x="2294" y="2092.4" as="targetPoint" />
            </mxGeometry>
          </mxCell>
        </UserObject>
        <UserObject label="" tags="Фон" id="3eGt7si79daoKyPCbFKP-282">
          <mxCell style="vsdxID=327;edgeStyle=none;startArrow=none;endArrow=none;startSize=3;endSize=3;strokeColor=#000000;spacingTop=-2;spacingBottom=-2;spacingLeft=-2;spacingRight=-2;verticalAlign=middle;html=1;labelBackgroundColor=#ffffff;rounded=0;" parent="1" edge="1">
            <mxGeometry relative="1" as="geometry">
              <mxPoint as="offset" />
              <Array as="points" />
              <mxPoint x="2034" y="2112.4" as="sourcePoint" />
              <mxPoint x="2294" y="2112.4" as="targetPoint" />
            </mxGeometry>
          </mxCell>
        </UserObject>
        <UserObject label="" tags="Фон" id="3eGt7si79daoKyPCbFKP-283">
          <mxCell style="vsdxID=328;edgeStyle=none;startArrow=none;endArrow=none;startSize=3;endSize=3;strokeWidth=4;strokeColor=#000000;spacingTop=-2;spacingBottom=-2;spacingLeft=-2;spacingRight=-2;verticalAlign=middle;html=1;labelBackgroundColor=#ffffff;rounded=0;" parent="1" edge="1">
            <mxGeometry relative="1" as="geometry">
              <Array as="points" />
              <mxPoint x="2062" y="1912.4" as="sourcePoint" />
              <mxPoint x="2062" y="2012.4" as="targetPoint" />
            </mxGeometry>
          </mxCell>
        </UserObject>
        <UserObject label="" tags="Фон" id="3eGt7si79daoKyPCbFKP-284">
          <mxCell style="vsdxID=329;edgeStyle=none;startArrow=none;endArrow=none;startSize=3;endSize=3;strokeWidth=4;strokeColor=#000000;spacingTop=-2;spacingBottom=-2;spacingLeft=-2;spacingRight=-2;verticalAlign=middle;html=1;labelBackgroundColor=#ffffff;rounded=0;" parent="1" edge="1">
            <mxGeometry relative="1" as="geometry">
              <Array as="points" />
              <mxPoint x="2102" y="1912.4" as="sourcePoint" />
              <mxPoint x="2102" y="2012.4" as="targetPoint" />
            </mxGeometry>
          </mxCell>
        </UserObject>
        <UserObject label="" tags="Фон" id="3eGt7si79daoKyPCbFKP-285">
          <mxCell style="vsdxID=330;edgeStyle=none;startArrow=none;endArrow=none;startSize=3;endSize=3;strokeWidth=4;strokeColor=#000000;spacingTop=-2;spacingBottom=-2;spacingLeft=-2;spacingRight=-2;verticalAlign=middle;html=1;labelBackgroundColor=#ffffff;rounded=0;" parent="1" edge="1">
            <mxGeometry relative="1" as="geometry">
              <Array as="points" />
              <mxPoint x="2194" y="1912.4" as="sourcePoint" />
              <mxPoint x="2194" y="2012.4" as="targetPoint" />
            </mxGeometry>
          </mxCell>
        </UserObject>
        <UserObject label="" tags="Фон" id="3eGt7si79daoKyPCbFKP-286">
          <mxCell style="vsdxID=331;edgeStyle=none;startArrow=none;endArrow=none;startSize=3;endSize=3;strokeWidth=4;strokeColor=#000000;spacingTop=-2;spacingBottom=-2;spacingLeft=-2;spacingRight=-2;verticalAlign=middle;html=1;labelBackgroundColor=#ffffff;rounded=0;" parent="1" edge="1">
            <mxGeometry relative="1" as="geometry">
              <Array as="points" />
              <mxPoint x="2254" y="1912.4" as="sourcePoint" />
              <mxPoint x="2254" y="2012.4" as="targetPoint" />
            </mxGeometry>
          </mxCell>
        </UserObject>
        <UserObject label="" tags="Фон" id="3eGt7si79daoKyPCbFKP-287">
          <mxCell style="vsdxID=332;edgeStyle=none;startArrow=none;endArrow=none;startSize=3;endSize=3;strokeWidth=4;strokeColor=#000000;spacingTop=-2;spacingBottom=-2;spacingLeft=-2;spacingRight=-2;verticalAlign=middle;html=1;labelBackgroundColor=#ffffff;rounded=0;" parent="1" edge="1">
            <mxGeometry relative="1" as="geometry">
              <Array as="points" />
              <mxPoint x="2102" y="2012.4" as="sourcePoint" />
              <mxPoint x="2102" y="2132.4" as="targetPoint" />
            </mxGeometry>
          </mxCell>
        </UserObject>
        <UserObject label="" tags="Фон" id="3eGt7si79daoKyPCbFKP-288">
          <mxCell style="vsdxID=333;edgeStyle=none;startArrow=none;endArrow=none;startSize=3;endSize=3;strokeWidth=4;strokeColor=#000000;spacingTop=-2;spacingBottom=-2;spacingLeft=-2;spacingRight=-2;verticalAlign=middle;html=1;labelBackgroundColor=#ffffff;rounded=0;" parent="1" edge="1">
            <mxGeometry relative="1" as="geometry">
              <Array as="points" />
              <mxPoint x="2194" y="2012.4" as="sourcePoint" />
              <mxPoint x="2194" y="2132.4" as="targetPoint" />
            </mxGeometry>
          </mxCell>
        </UserObject>
        <UserObject label="" tags="Фон" id="3eGt7si79daoKyPCbFKP-289">
          <mxCell style="vsdxID=334;edgeStyle=none;startArrow=none;endArrow=none;startSize=3;endSize=3;strokeWidth=4;strokeColor=#000000;spacingTop=-2;spacingBottom=-2;spacingLeft=-2;spacingRight=-2;verticalAlign=middle;html=1;labelBackgroundColor=#ffffff;rounded=0;" parent="1" edge="1">
            <mxGeometry relative="1" as="geometry">
              <Array as="points" />
              <mxPoint x="2254" y="2012.4" as="sourcePoint" />
              <mxPoint x="2254" y="2132.4" as="targetPoint" />
            </mxGeometry>
          </mxCell>
        </UserObject>
        <UserObject label="" tags="Фон" id="3eGt7si79daoKyPCbFKP-290">
          <mxCell style="vsdxID=335;edgeStyle=none;startArrow=none;endArrow=none;startSize=3;endSize=3;strokeWidth=4;strokeColor=#000000;spacingTop=-2;spacingBottom=-2;spacingLeft=-2;spacingRight=-2;verticalAlign=middle;html=1;labelBackgroundColor=#ffffff;rounded=0;" parent="1" edge="1">
            <mxGeometry relative="1" as="geometry">
              <mxPoint as="offset" />
              <Array as="points" />
              <mxPoint x="2574" y="1992.4" as="sourcePoint" />
              <mxPoint x="2774" y="1992.4" as="targetPoint" />
            </mxGeometry>
          </mxCell>
        </UserObject>
        <UserObject label="" tags="Фон" id="3eGt7si79daoKyPCbFKP-291">
          <mxCell style="vsdxID=336;edgeStyle=none;startArrow=none;endArrow=none;startSize=3;endSize=3;strokeWidth=4;strokeColor=#000000;spacingTop=-2;spacingBottom=-2;spacingLeft=-2;spacingRight=-2;verticalAlign=middle;html=1;labelBackgroundColor=#ffffff;rounded=0;" parent="1" edge="1">
            <mxGeometry relative="1" as="geometry">
              <mxPoint as="offset" />
              <Array as="points" />
              <mxPoint x="2574" y="2052.4" as="sourcePoint" />
              <mxPoint x="2774" y="2052.4" as="targetPoint" />
            </mxGeometry>
          </mxCell>
        </UserObject>
        <UserObject label="" tags="Фон" id="3eGt7si79daoKyPCbFKP-292">
          <mxCell style="vsdxID=337;fillColor=#FFFFFF;gradientColor=none;shape=stencil(fY9LDoAgDERP0z3SIyjeg0QUooJB/N1eSGMkJrib6bxpWsB61XJRwNkavBvVYbqgARvg3FitvAlRAQrAundeDd5ttiO/yEQmNbs9bTipx1KDsyt3LYGTsUWwYj/oExbgKN5r6JE8+14eR/Q1ihs=);strokeColor=#000000;strokeWidth=4;spacingTop=-2;spacingBottom=-2;spacingLeft=-2;spacingRight=-2;points=[];labelBackgroundColor=#ffffff;rounded=0;html=1;whiteSpace=wrap;" parent="1" vertex="1">
            <mxGeometry x="2294" y="1912.4" width="480" height="60" as="geometry" />
          </mxCell>
        </UserObject>
        <UserObject label="&lt;div style=&quot;font-size: 1px&quot;&gt;&lt;font style=&quot;font-size:33.87px;font-family:Arial;color:#000000;direction:ltr;letter-spacing:0px;line-height:120%;opacity:1&quot;&gt;&lt;i&gt;ГУИР.400201&lt;/i&gt;&lt;/font&gt;&lt;font style=&quot;font-size:33.87px;font-family:Arial;color:#000000;direction:ltr;letter-spacing:0px;line-height:120%;opacity:1&quot;&gt;&lt;i&gt;.318&lt;/i&gt;&lt;/font&gt;&lt;font style=&quot;font-size:33.87px;font-family:Arial;color:#000000;direction:ltr;letter-spacing:0px;line-height:120%;opacity:1&quot;&gt;&lt;i&gt;&lt;br&gt;&lt;/i&gt;&lt;/font&gt;&lt;/div&gt;" tags="Фон" id="3eGt7si79daoKyPCbFKP-293">
          <mxCell style="verticalAlign=middle;align=center;overflow=width;vsdxID=338;fillColor=none;gradientColor=none;shape=stencil(nZBLDoAgDERP0z3SIyjew0SURgSD+Lu9kMZoXLhwN9O+tukAlrNpJg1SzDH4QW/URgNYgZTkjA4UkwJUgGXng+6DX1zLfmoymdXo17xh5zmRJ6Q42BWCfc2oJfdAr+Yv+AP9Cb7OJ3H/2JG1HNGz/84klThPVCc=);strokeColor=none;spacingTop=-2;spacingBottom=-2;spacingLeft=-2;spacingRight=-2;points=[];labelBackgroundColor=none;rounded=0;html=1;whiteSpace=wrap;" parent="1" vertex="1">
            <mxGeometry x="2294" y="1912.4" width="480" height="60" as="geometry" />
          </mxCell>
        </UserObject>
        <UserObject label="&lt;div style=&quot;font-size: 1px&quot;&gt;&lt;font style=&quot;font-size:12.7px;font-family:Arial;color:#000000;direction:ltr;letter-spacing:0px;line-height:120%;opacity:1&quot;&gt;&lt;i&gt;Лит.&lt;br/&gt;&lt;/i&gt;&lt;/font&gt;&lt;/div&gt;" tags="Фон" id="3eGt7si79daoKyPCbFKP-294">
          <mxCell style="verticalAlign=middle;align=center;overflow=width;vsdxID=339;fillColor=none;gradientColor=none;shape=stencil(nZBLDoAgDERP0z3SIyjew0SURgSD+Lu9kMZoXLhwN9O+tukAlrNpJg1SzDH4QW/URgNYgZTkjA4UkwJUgGXng+6DX1zLfmoymdXo17xh5zmRJ6Q42BWCfc2oJfdAr+Yv+AP9Cb7OJ3H/2JG1HNGz/84klThPVCc=);strokeColor=none;spacingTop=-2;spacingBottom=-2;spacingLeft=-2;spacingRight=-2;points=[];labelBackgroundColor=none;rounded=0;html=1;whiteSpace=wrap;" parent="1" vertex="1">
            <mxGeometry x="2574" y="1972.4" width="60" height="20" as="geometry" />
          </mxCell>
        </UserObject>
        <UserObject label="&lt;div style=&quot;font-size: 1px&quot;&gt;&lt;font style=&quot;font-size:12.7px;font-family:Arial;color:#000000;direction:ltr;letter-spacing:0px;line-height:120%;opacity:1&quot;&gt;&lt;i&gt;Масса&lt;br/&gt;&lt;/i&gt;&lt;/font&gt;&lt;/div&gt;" tags="Фон" id="3eGt7si79daoKyPCbFKP-295">
          <mxCell style="verticalAlign=middle;align=center;overflow=width;vsdxID=340;fillColor=none;gradientColor=none;shape=stencil(nZBLDoAgDERP0z3SIyjew0SURgSD+Lu9kMZoXLhwN9O+tukAlrNpJg1SzDH4QW/URgNYgZTkjA4UkwJUgGXng+6DX1zLfmoymdXo17xh5zmRJ6Q42BWCfc2oJfdAr+Yv+AP9Cb7OJ3H/2JG1HNGz/84klThPVCc=);strokeColor=none;spacingTop=-2;spacingBottom=-2;spacingLeft=-2;spacingRight=-2;points=[];labelBackgroundColor=none;rounded=0;html=1;whiteSpace=wrap;" parent="1" vertex="1">
            <mxGeometry x="2634" y="1972.4" width="60" height="20" as="geometry" />
          </mxCell>
        </UserObject>
        <UserObject label="&lt;div style=&quot;font-size: 1px&quot;&gt;&lt;font style=&quot;font-size:12.7px;font-family:Arial;color:#000000;direction:ltr;letter-spacing:0px;line-height:120%;opacity:1&quot;&gt;&lt;i&gt;Масштаб&lt;br/&gt;&lt;/i&gt;&lt;/font&gt;&lt;/div&gt;" tags="Фон" id="3eGt7si79daoKyPCbFKP-296">
          <mxCell style="verticalAlign=middle;align=center;overflow=width;vsdxID=341;fillColor=none;gradientColor=none;shape=stencil(nZBLDoAgDERP0z3SIyjew0SURgSD+Lu9kMZoXLhwN9O+tukAlrNpJg1SzDH4QW/URgNYgZTkjA4UkwJUgGXng+6DX1zLfmoymdXo17xh5zmRJ6Q42BWCfc2oJfdAr+Yv+AP9Cb7OJ3H/2JG1HNGz/84klThPVCc=);strokeColor=none;spacingTop=-2;spacingBottom=-2;spacingLeft=-2;spacingRight=-2;points=[];labelBackgroundColor=none;rounded=0;html=1;whiteSpace=wrap;" parent="1" vertex="1">
            <mxGeometry x="2696" y="1974.4" width="80" height="16" as="geometry" />
          </mxCell>
        </UserObject>
        <UserObject label="&lt;div style=&quot;font-size: 1px&quot;&gt;&lt;font style=&quot;font-size:12.7px;font-family:Arial;color:#000000;direction:ltr;letter-spacing:0px;line-height:120%;opacity:1&quot;&gt;&lt;i&gt;Лист&lt;/i&gt;&lt;/font&gt;&lt;font style=&quot;font-size:12.7px;font-family:Arial;color:#000000;direction:ltr;letter-spacing:0px;line-height:120%;opacity:1&quot;&gt;&lt;i&gt; &lt;/i&gt;&lt;/font&gt;&lt;font style=&quot;font-size:12.7px;font-family:Arial;color:#000000;direction:ltr;letter-spacing:0px;line-height:120%;opacity:1&quot;&gt;&lt;i&gt;&lt;br/&gt;&lt;/i&gt;&lt;/font&gt;&lt;/div&gt;" tags="Фон" id="3eGt7si79daoKyPCbFKP-297">
          <mxCell style="verticalAlign=middle;align=center;overflow=width;vsdxID=343;fillColor=none;gradientColor=none;shape=stencil(nZBLDoAgDERP0z3SIyjew0SURgSD+Lu9kMZoXLhwN9O+tukAlrNpJg1SzDH4QW/URgNYgZTkjA4UkwJUgGXng+6DX1zLfmoymdXo17xh5zmRJ6Q42BWCfc2oJfdAr+Yv+AP9Cb7OJ3H/2JG1HNGz/84klThPVCc=);strokeColor=none;spacingTop=-2;spacingBottom=-2;spacingLeft=-2;spacingRight=-2;points=[];labelBackgroundColor=none;rounded=0;html=1;whiteSpace=wrap;" parent="1" vertex="1">
            <mxGeometry x="2574" y="2054.4" width="60" height="18" as="geometry" />
          </mxCell>
        </UserObject>
        <UserObject label="" tags="Фон" id="3eGt7si79daoKyPCbFKP-298">
          <mxCell style="vsdxID=344;edgeStyle=none;startArrow=none;endArrow=none;startSize=3;endSize=3;strokeColor=#000000;spacingTop=-2;spacingBottom=-2;spacingLeft=-2;spacingRight=-2;verticalAlign=middle;html=1;labelBackgroundColor=#ffffff;rounded=0;" parent="1" edge="1">
            <mxGeometry relative="1" as="geometry">
              <Array as="points" />
              <mxPoint x="2702" y="1972.4" as="sourcePoint" />
              <mxPoint x="2702" y="2052.4" as="targetPoint" />
            </mxGeometry>
          </mxCell>
        </UserObject>
        <UserObject label="" tags="Фон" id="3eGt7si79daoKyPCbFKP-299">
          <mxCell style="vsdxID=345;edgeStyle=none;startArrow=none;endArrow=none;startSize=3;endSize=3;strokeColor=#000000;spacingTop=-2;spacingBottom=-2;spacingLeft=-2;spacingRight=-2;verticalAlign=middle;html=1;labelBackgroundColor=#ffffff;rounded=0;" parent="1" edge="1">
            <mxGeometry relative="1" as="geometry">
              <Array as="points" />
              <mxPoint x="2654" y="2052.4" as="sourcePoint" />
              <mxPoint x="2654" y="2072.4" as="targetPoint" />
            </mxGeometry>
          </mxCell>
        </UserObject>
        <UserObject label="" tags="Фон" id="3eGt7si79daoKyPCbFKP-300">
          <mxCell style="vsdxID=346;edgeStyle=none;startArrow=none;endArrow=none;startSize=3;endSize=3;strokeColor=#000000;spacingTop=-2;spacingBottom=-2;spacingLeft=-2;spacingRight=-2;verticalAlign=middle;html=1;labelBackgroundColor=#ffffff;rounded=0;" parent="1" edge="1">
            <mxGeometry relative="1" as="geometry">
              <Array as="points" />
              <mxPoint x="2634" y="1972.4" as="sourcePoint" />
              <mxPoint x="2634" y="2052.4" as="targetPoint" />
            </mxGeometry>
          </mxCell>
        </UserObject>
        <UserObject label="&lt;div style=&quot;font-size: 1px&quot;&gt;&lt;font style=&quot;font-size:12.7px;font-family:Arial;color:#000000;direction:ltr;letter-spacing:0px;line-height:120%;opacity:1&quot;&gt;&lt;i&gt;Листов    &lt;/i&gt;&lt;/font&gt;&lt;font style=&quot;font-size:12.7px;font-family:Arial;color:#000000;direction:ltr;letter-spacing:0px;line-height:120%;opacity:1&quot;&gt;&lt;i&gt;1&lt;br/&gt;&lt;/i&gt;&lt;/font&gt;&lt;/div&gt;" tags="Фон" id="3eGt7si79daoKyPCbFKP-301">
          <mxCell style="verticalAlign=middle;align=center;overflow=width;vsdxID=347;fillColor=none;gradientColor=none;shape=stencil(nZBLDoAgDERP0z3SIyjew0SURgSD+Lu9kMZoXLhwN9O+tukAlrNpJg1SzDH4QW/URgNYgZTkjA4UkwJUgGXng+6DX1zLfmoymdXo17xh5zmRJ6Q42BWCfc2oJfdAr+Yv+AP9Cb7OJ3H/2JG1HNGz/84klThPVCc=);strokeColor=none;spacingTop=-2;spacingBottom=-2;spacingLeft=-2;spacingRight=-2;points=[];labelBackgroundColor=none;rounded=0;html=1;whiteSpace=wrap;" parent="1" vertex="1">
            <mxGeometry x="2656" y="2052.4" width="118" height="20" as="geometry" />
          </mxCell>
        </UserObject>
        <UserObject label="&lt;div style=&quot;font-size: 1px&quot;&gt;&lt;font style=&quot;font-size:22.58px;font-family:Arial;color:#000000;direction:ltr;letter-spacing:0px;line-height:120%;opacity:1&quot;&gt;&lt;i&gt;ЭВМ, гр. 250503&lt;/i&gt;&lt;/font&gt;&lt;/div&gt;" tags="Фон" id="3eGt7si79daoKyPCbFKP-302">
          <mxCell style="verticalAlign=middle;align=center;overflow=width;vsdxID=348;fillColor=none;gradientColor=none;shape=stencil(nZBLDoAgDERP0z3SIyjew0SURgSD+Lu9kMZoXLhwN9O+tukAlrNpJg1SzDH4QW/URgNYgZTkjA4UkwJUgGXng+6DX1zLfmoymdXo17xh5zmRJ6Q42BWCfc2oJfdAr+Yv+AP9Cb7OJ3H/2JG1HNGz/84klThPVCc=);strokeColor=none;spacingTop=-2;spacingBottom=-2;spacingLeft=-2;spacingRight=-2;points=[[0.64,1,0],[1,1,0]];labelBackgroundColor=none;rounded=0;html=1;whiteSpace=wrap;" parent="1" vertex="1">
            <mxGeometry x="2574" y="2072.4" width="199" height="60" as="geometry" />
          </mxCell>
        </UserObject>
        <UserObject label="&lt;div style=&quot;font-size: 1px&quot;&gt;&lt;font style=&quot;font-size:11.29px;font-family:Arial;color:#000000;direction:ltr;letter-spacing:0px;line-height:120%;opacity:1&quot;&gt;&lt;i&gt;Изм&lt;/i&gt;&lt;/font&gt;&lt;font style=&quot;font-size:11.29px;font-family:Arial;color:#000000;direction:ltr;letter-spacing:0px;line-height:120%;opacity:1&quot;&gt;&lt;i&gt;.&lt;br/&gt;&lt;/i&gt;&lt;/font&gt;&lt;/div&gt;" tags="Фон" id="3eGt7si79daoKyPCbFKP-303">
          <mxCell style="verticalAlign=middle;align=center;overflow=width;vsdxID=349;fillColor=none;gradientColor=none;shape=stencil(nZBLDoAgDERP0z3SIyjew0SURgSD+Lu9kMZoXLhwN9O+tukAlrNpJg1SzDH4QW/URgNYgZTkjA4UkwJUgGXng+6DX1zLfmoymdXo17xh5zmRJ6Q42BWCfc2oJfdAr+Yv+AP9Cb7OJ3H/2JG1HNGz/84klThPVCc=);strokeColor=none;spacingTop=-2;spacingBottom=-2;spacingLeft=-2;spacingRight=-2;points=[];labelBackgroundColor=none;rounded=0;html=1;whiteSpace=wrap;" parent="1" vertex="1">
            <mxGeometry x="2034" y="1992.4" width="27" height="20" as="geometry" />
          </mxCell>
        </UserObject>
        <UserObject label="&lt;div style=&quot;font-size: 1px&quot;&gt;&lt;font style=&quot;font-size:11.29px;font-family:Arial;color:#000000;direction:ltr;letter-spacing:0px;line-height:120%;opacity:1&quot;&gt;&lt;i&gt;Лист&lt;br/&gt;&lt;/i&gt;&lt;/font&gt;&lt;/div&gt;" tags="Фон" id="3eGt7si79daoKyPCbFKP-304">
          <mxCell style="verticalAlign=middle;align=center;overflow=width;vsdxID=350;fillColor=none;gradientColor=none;shape=stencil(nZBLDoAgDERP0z3SIyjew0SURgSD+Lu9kMZoXLhwN9O+tukAlrNpJg1SzDH4QW/URgNYgZTkjA4UkwJUgGXng+6DX1zLfmoymdXo17xh5zmRJ6Q42BWCfc2oJfdAr+Yv+AP9Cb7OJ3H/2JG1HNGz/84klThPVCc=);strokeColor=none;spacingTop=-2;spacingBottom=-2;spacingLeft=-2;spacingRight=-2;points=[];labelBackgroundColor=none;rounded=0;html=1;whiteSpace=wrap;" parent="1" vertex="1">
            <mxGeometry x="2062" y="1992.4" width="39" height="20" as="geometry" />
          </mxCell>
        </UserObject>
        <UserObject label="&lt;div style=&quot;font-size: 1px&quot;&gt;&lt;font style=&quot;font-size:11.29px;font-family:Arial;color:#000000;direction:ltr;letter-spacing:0px;line-height:120%;opacity:1&quot;&gt;&lt;i&gt;№ докум.&lt;br/&gt;&lt;/i&gt;&lt;/font&gt;&lt;/div&gt;" tags="Фон" id="3eGt7si79daoKyPCbFKP-305">
          <mxCell style="verticalAlign=middle;align=center;overflow=width;vsdxID=351;fillColor=none;gradientColor=none;shape=stencil(nZBLDoAgDERP0z3SIyjew0SURgSD+Lu9kMZoXLhwN9O+tukAlrNpJg1SzDH4QW/URgNYgZTkjA4UkwJUgGXng+6DX1zLfmoymdXo17xh5zmRJ6Q42BWCfc2oJfdAr+Yv+AP9Cb7OJ3H/2JG1HNGz/84klThPVCc=);strokeColor=none;strokeWidth=4;spacingTop=-2;spacingBottom=-2;spacingLeft=-2;spacingRight=-2;points=[];labelBackgroundColor=none;rounded=0;html=1;whiteSpace=wrap;" parent="1" vertex="1">
            <mxGeometry x="2102" y="1992.4" width="91" height="20" as="geometry" />
          </mxCell>
        </UserObject>
        <UserObject label="&lt;div style=&quot;font-size: 1px&quot;&gt;&lt;font style=&quot;font-size:11.29px;font-family:Arial;color:#000000;direction:ltr;letter-spacing:0px;line-height:120%;opacity:1&quot;&gt;&lt;i&gt;Подп.&lt;br/&gt;&lt;/i&gt;&lt;/font&gt;&lt;/div&gt;" tags="Фон" id="3eGt7si79daoKyPCbFKP-306">
          <mxCell style="verticalAlign=middle;align=center;overflow=width;vsdxID=352;fillColor=none;gradientColor=none;shape=stencil(nZBLDoAgDERP0z3SIyjew0SURgSD+Lu9kMZoXLhwN9O+tukAlrNpJg1SzDH4QW/URgNYgZTkjA4UkwJUgGXng+6DX1zLfmoymdXo17xh5zmRJ6Q42BWCfc2oJfdAr+Yv+AP9Cb7OJ3H/2JG1HNGz/84klThPVCc=);strokeColor=none;strokeWidth=4;spacingTop=-2;spacingBottom=-2;spacingLeft=-2;spacingRight=-2;points=[];labelBackgroundColor=none;rounded=0;html=1;whiteSpace=wrap;" parent="1" vertex="1">
            <mxGeometry x="2194" y="1992.4" width="60" height="20" as="geometry" />
          </mxCell>
        </UserObject>
        <UserObject label="&lt;div style=&quot;font-size: 1px&quot;&gt;&lt;font style=&quot;font-size:11.29px;font-family:Arial;color:#000000;direction:ltr;letter-spacing:0px;line-height:120%;opacity:1&quot;&gt;&lt;i&gt;Дата&lt;br/&gt;&lt;/i&gt;&lt;/font&gt;&lt;/div&gt;" tags="Фон" id="3eGt7si79daoKyPCbFKP-307">
          <mxCell style="verticalAlign=middle;align=center;overflow=width;vsdxID=353;fillColor=none;gradientColor=none;shape=stencil(nZBLDoAgDERP0z3SIyjew0SURgSD+Lu9kMZoXLhwN9O+tukAlrNpJg1SzDH4QW/URgNYgZTkjA4UkwJUgGXng+6DX1zLfmoymdXo17xh5zmRJ6Q42BWCfc2oJfdAr+Yv+AP9Cb7OJ3H/2JG1HNGz/84klThPVCc=);strokeColor=none;strokeWidth=4;spacingTop=-2;spacingBottom=-2;spacingLeft=-2;spacingRight=-2;points=[];labelBackgroundColor=none;rounded=0;html=1;whiteSpace=wrap;" parent="1" vertex="1">
            <mxGeometry x="2253" y="1992.4" width="40" height="19" as="geometry" />
          </mxCell>
        </UserObject>
        <UserObject label="&lt;div style=&quot;font-size: 1px&quot;&gt;&lt;font style=&quot;font-size:11.29px;font-family:Arial;color:#000000;direction:ltr;letter-spacing:0px;line-height:120%;opacity:1&quot;&gt;&lt;i&gt;Разраб.&lt;br/&gt;&lt;/i&gt;&lt;/font&gt;&lt;/div&gt;" tags="Фон" id="3eGt7si79daoKyPCbFKP-308">
          <mxCell style="verticalAlign=middle;align=center;overflow=width;vsdxID=354;fillColor=none;gradientColor=none;shape=stencil(nZBLDoAgDERP0z3SIyjew0SURgSD+Lu9kMZoXLhwN9O+tukAlrNpJg1SzDH4QW/URgNYgZTkjA4UkwJUgGXng+6DX1zLfmoymdXo17xh5zmRJ6Q42BWCfc2oJfdAr+Yv+AP9Cb7OJ3H/2JG1HNGz/84klThPVCc=);strokeColor=none;spacingTop=-2;spacingBottom=-2;spacingLeft=-2;spacingRight=-2;points=[];labelBackgroundColor=none;rounded=0;html=1;whiteSpace=wrap;" parent="1" vertex="1">
            <mxGeometry x="2024" y="2012.4" width="68" height="20" as="geometry" />
          </mxCell>
        </UserObject>
        <UserObject label="&lt;div style=&quot;font-size: 1px&quot;&gt;&lt;font style=&quot;font-size:11.29px;font-family:Arial;color:#000000;direction:ltr;letter-spacing:0px;line-height:120%;opacity:1&quot;&gt;&lt;i&gt;Пров.&lt;br/&gt;&lt;/i&gt;&lt;/font&gt;&lt;/div&gt;" tags="Фон" id="3eGt7si79daoKyPCbFKP-309">
          <mxCell style="verticalAlign=middle;align=center;overflow=width;vsdxID=355;fillColor=none;gradientColor=none;shape=stencil(nZBLDoAgDERP0z3SIyjew0SURgSD+Lu9kMZoXLhwN9O+tukAlrNpJg1SzDH4QW/URgNYgZTkjA4UkwJUgGXng+6DX1zLfmoymdXo17xh5zmRJ6Q42BWCfc2oJfdAr+Yv+AP9Cb7OJ3H/2JG1HNGz/84klThPVCc=);strokeColor=none;spacingTop=-2;spacingBottom=-2;spacingLeft=-2;spacingRight=-2;points=[];labelBackgroundColor=none;rounded=0;html=1;whiteSpace=wrap;" parent="1" vertex="1">
            <mxGeometry x="2020" y="2032.4" width="68" height="20" as="geometry" />
          </mxCell>
        </UserObject>
        <UserObject label="&lt;div style=&quot;font-size: 1px&quot;&gt;&lt;p style=&quot;text-align:left;margin-left:0;margin-right:0;margin-top:0px;margin-bottom:0px;text-indent:0;vertical-align:middle;direction:ltr;&quot;&gt;&lt;font style=&quot;font-size:11.29px;font-family:Arial;color:#000000;direction:ltr;letter-spacing:0px;line-height:120%;opacity:1&quot;&gt;&lt;i&gt;Богдан&lt;/i&gt;&lt;/font&gt;&lt;/p&gt;&lt;/div&gt;" tags="Фон" id="3eGt7si79daoKyPCbFKP-310">
          <mxCell style="verticalAlign=middle;align=left;overflow=width;vsdxID=357;fillColor=none;gradientColor=none;shape=stencil(nZBLDoAgDERP0z3SIyjew0SURgSD+Lu9kMZoXLhwN9O+tukAlrNpJg1SzDH4QW/URgNYgZTkjA4UkwJUgGXng+6DX1zLfmoymdXo17xh5zmRJ6Q42BWCfc2oJfdAr+Yv+AP9Cb7OJ3H/2JG1HNGz/84klThPVCc=);strokeColor=none;spacingTop=-2;spacingBottom=-2;spacingLeft=-2;spacingRight=-2;points=[];labelBackgroundColor=none;rounded=0;html=1;whiteSpace=wrap;" parent="1" vertex="1">
            <mxGeometry x="2105" y="2032.4" width="91" height="20" as="geometry" />
          </mxCell>
        </UserObject>
        <UserObject label="" tags="Фон" id="3eGt7si79daoKyPCbFKP-311">
          <mxCell style="vsdxID=359;edgeStyle=none;startArrow=none;endArrow=none;startSize=3;endSize=3;strokeWidth=4;spacingTop=-2;spacingBottom=-2;spacingLeft=-2;spacingRight=-2;verticalAlign=middle;html=1;labelBackgroundColor=#ffffff;rounded=0;" parent="1" edge="1">
            <mxGeometry relative="1" as="geometry">
              <mxPoint as="offset" />
              <Array as="points" />
              <mxPoint x="2034" y="1046.4" as="sourcePoint" />
              <mxPoint x="2772" y="1046.4" as="targetPoint" />
            </mxGeometry>
          </mxCell>
        </UserObject>
        <UserObject label="" tags="Фон" id="3eGt7si79daoKyPCbFKP-312">
          <mxCell style="vsdxID=361;edgeStyle=none;startArrow=none;endArrow=none;startSize=3;endSize=3;strokeWidth=4;spacingTop=-2;spacingBottom=-2;spacingLeft=-2;spacingRight=-2;verticalAlign=middle;html=1;labelBackgroundColor=#ffffff;rounded=0;" parent="1" edge="1">
            <mxGeometry relative="1" as="geometry">
              <Array as="points" />
              <mxPoint x="2774" y="1912.4" as="sourcePoint" />
              <mxPoint x="2774" y="1046.4" as="targetPoint" />
            </mxGeometry>
          </mxCell>
        </UserObject>
        <UserObject label="" tags="Фон" id="3eGt7si79daoKyPCbFKP-313">
          <mxCell style="vsdxID=363;edgeStyle=none;startArrow=none;endArrow=none;startSize=3;endSize=3;strokeWidth=4;spacingTop=-2;spacingBottom=-2;spacingLeft=-2;spacingRight=-2;verticalAlign=middle;html=1;labelBackgroundColor=#ffffff;rounded=0;" parent="1" edge="1">
            <mxGeometry relative="1" as="geometry">
              <Array as="points" />
              <mxPoint x="2719" y="1323.4" as="sourcePoint" />
              <mxPoint x="2774" y="1323.4" as="targetPoint" />
            </mxGeometry>
          </mxCell>
        </UserObject>
        <UserObject label="&lt;div style=&quot;font-size: 1px&quot;&gt;&lt;font style=&quot;font-size:25.4px;font-family:Arial;color:#000000;direction:ltr;letter-spacing:0px;line-height:120%;opacity:1&quot;&gt;&lt;i&gt;ГУИР.400201&lt;/i&gt;&lt;/font&gt;&lt;font style=&quot;font-size:25.4px;font-family:Arial;color:#000000;direction:ltr;letter-spacing:0px;line-height:120%;opacity:1&quot;&gt;&lt;i&gt;.318&lt;/i&gt;&lt;/font&gt;&lt;font style=&quot;font-size:25.4px;font-family:Arial;color:#000000;direction:ltr;letter-spacing:0px;line-height:120%;opacity:1&quot;&gt;&lt;i&gt;&lt;br&gt;&lt;/i&gt;&lt;/font&gt;&lt;/div&gt;" tags="Фон" id="3eGt7si79daoKyPCbFKP-314">
          <mxCell style="verticalAlign=middle;align=center;overflow=width;vsdxID=364;rotation=90;fillColor=none;gradientColor=none;shape=stencil(nZBLDoAgDERP0z3SIyjew0SURgSD+Lu9kMZoXLhwN9O+tukAlrNpJg1SzDH4QW/URgNYgZTkjA4UkwJUgGXng+6DX1zLfmoymdXo17xh5zmRJ6Q42BWCfc2oJfdAr+Yv+AP9Cb7OJ3H/2JG1HNGz/84klThPVCc=);strokeColor=none;spacingTop=-2;spacingBottom=-2;spacingLeft=-2;spacingRight=-2;points=[];labelBackgroundColor=none;rounded=0;html=1;whiteSpace=wrap;" parent="1" vertex="1">
            <mxGeometry x="2610" y="1151.4" width="276" height="68" as="geometry" />
          </mxCell>
        </UserObject>
        <UserObject label="&lt;div style=&quot;&quot;&gt;&lt;p style=&quot;text-align: center; margin: 0px; text-indent: 0px; vertical-align: middle; direction: ltr;&quot;&gt;&lt;font face=&quot;Arial-ItalicMT&quot;&gt;&lt;span style=&quot;font-size: 19.76px;&quot;&gt;&lt;i&gt;Схема алгоритма функции&lt;/i&gt;&lt;/span&gt;&lt;/font&gt;&lt;/p&gt;&lt;p style=&quot;text-align: center; margin: 0px; text-indent: 0px; vertical-align: middle; direction: ltr;&quot;&gt;&lt;font face=&quot;Arial-ItalicMT&quot;&gt;&lt;span style=&quot;font-size: 19.76px;&quot;&gt;&lt;i&gt;ascii(const Image* image,const std::string file_name)&lt;/i&gt;&lt;/span&gt;&lt;/font&gt;&lt;/p&gt;&lt;/div&gt;" tags="Фон" id="3eGt7si79daoKyPCbFKP-315">
          <mxCell style="verticalAlign=middle;align=center;overflow=width;vsdxID=409;fillColor=none;gradientColor=none;shape=stencil(nZBLDoAgDERP0z3SIyjew0SURgSD+Lu9kMZoXLhwN9O+tukAlrNpJg1SzDH4QW/URgNYgZTkjA4UkwJUgGXng+6DX1zLfmoymdXo17xh5zmRJ6Q42BWCfc2oJfdAr+Yv+AP9Cb7OJ3H/2JG1HNGz/84klThPVCc=);strokeColor=none;spacingTop=-2;spacingBottom=-2;spacingLeft=-2;spacingRight=-2;points=[];labelBackgroundColor=none;rounded=0;html=1;whiteSpace=wrap;" parent="1" vertex="1">
            <mxGeometry x="2294" y="1973.4" width="280" height="98" as="geometry" />
          </mxCell>
        </UserObject>
        <UserObject label="&lt;div style=&quot;font-size: 1px&quot;&gt;&lt;font style=&quot;font-size:14.11px;font-family:Arial;color:#000000;direction:ltr;letter-spacing:0px;line-height:120%;opacity:1&quot;&gt;&lt;i&gt;&lt;br&gt;&lt;/i&gt;&lt;/font&gt;&lt;/div&gt;" tags="Фон" id="3eGt7si79daoKyPCbFKP-316">
          <mxCell style="verticalAlign=middle;align=center;overflow=width;vsdxID=695;fillColor=none;gradientColor=none;shape=stencil(nZBLDoAgDERP0z3SIyjew0SURgSD+Lu9kMZoXLhwN9O+tukAlrNpJg1SzDH4QW/URgNYgZTkjA4UkwJUgGXng+6DX1zLfmoymdXo17xh5zmRJ6Q42BWCfc2oJfdAr+Yv+AP9Cb7OJ3H/2JG1HNGz/84klThPVCc=);strokeColor=none;spacingTop=-2;spacingBottom=-2;spacingLeft=-2;spacingRight=-2;points=[];labelBackgroundColor=none;rounded=0;html=1;whiteSpace=wrap;" parent="1" vertex="1">
            <mxGeometry x="2695" y="1992.4" width="77" height="61" as="geometry" />
          </mxCell>
        </UserObject>
        <UserObject label="" tags="Фон" id="3eGt7si79daoKyPCbFKP-317">
          <mxCell style="vsdxID=1512;edgeStyle=none;startArrow=none;endArrow=none;startSize=3;endSize=3;spacingTop=-2;spacingBottom=-2;spacingLeft=-2;spacingRight=-2;verticalAlign=middle;html=1;labelBackgroundColor=#ffffff;rounded=0;" parent="1" edge="1">
            <mxGeometry relative="1" as="geometry">
              <Array as="points" />
              <mxPoint x="2594" y="1994.4" as="sourcePoint" />
              <mxPoint x="2594" y="2050.4" as="targetPoint" />
            </mxGeometry>
          </mxCell>
        </UserObject>
        <UserObject label="" tags="Фон" id="3eGt7si79daoKyPCbFKP-318">
          <mxCell style="vsdxID=1513;edgeStyle=none;startArrow=none;endArrow=none;startSize=3;endSize=3;spacingTop=-2;spacingBottom=-2;spacingLeft=-2;spacingRight=-2;verticalAlign=middle;html=1;labelBackgroundColor=#ffffff;rounded=0;" parent="1" edge="1">
            <mxGeometry relative="1" as="geometry">
              <Array as="points" />
              <mxPoint x="2614" y="1994.4" as="sourcePoint" />
              <mxPoint x="2614" y="2051.4" as="targetPoint" />
            </mxGeometry>
          </mxCell>
        </UserObject>
        <UserObject label="&lt;div style=&quot;font-size: 1px&quot;&gt;&lt;p style=&quot;text-align:left;margin-left:0;margin-right:0;margin-top:0px;margin-bottom:0px;text-indent:0;vertical-align:middle;direction:ltr;&quot;&gt;&lt;font style=&quot;font-size:11.29px;font-family:Arial;color:#000000;direction:ltr;letter-spacing:0px;line-height:120%;opacity:1&quot;&gt;&lt;i&gt;Мелюх&lt;/i&gt;&lt;/font&gt;&lt;/p&gt;&lt;/div&gt;" tags="Фон" id="3eGt7si79daoKyPCbFKP-319">
          <mxCell style="verticalAlign=middle;align=left;overflow=width;vsdxID=356;fillColor=none;gradientColor=none;shape=stencil(nZBLDoAgDERP0z3SIyjew0SURgSD+Lu9kMZoXLhwN9O+tukAlrNpJg1SzDH4QW/URgNYgZTkjA4UkwJUgGXng+6DX1zLfmoymdXo17xh5zmRJ6Q42BWCfc2oJfdAr+Yv+AP9Cb7OJ3H/2JG1HNGz/84klThPVCc=);strokeColor=none;spacingTop=-2;spacingBottom=-2;spacingLeft=-2;spacingRight=-2;points=[];labelBackgroundColor=none;rounded=0;html=1;whiteSpace=wrap;" parent="1" vertex="1">
            <mxGeometry x="2104" y="2013.4" width="91" height="20" as="geometry" />
          </mxCell>
        </UserObject>
        <UserObject label="" tags="Фон" id="3eGt7si79daoKyPCbFKP-320">
          <mxCell style="vsdxID=1085;edgeStyle=none;startArrow=none;endArrow=none;startSize=3;endSize=3;spacingTop=-2;spacingBottom=-2;spacingLeft=-2;spacingRight=-2;verticalAlign=middle;html=1;labelBackgroundColor=#ffffff;rounded=0;" parent="1" edge="1">
            <mxGeometry relative="1" as="geometry">
              <mxPoint as="offset" />
              <Array as="points" />
              <mxPoint x="2050" y="1912.4" as="sourcePoint" />
              <mxPoint x="2070" y="1912.4" as="targetPoint" />
            </mxGeometry>
          </mxCell>
        </UserObject>
        <UserObject label="&lt;div style=&quot;font-size: 1px&quot;&gt;&lt;font style=&quot;font-size:14.11px;font-family:Arial;color:#000000;direction:ltr;letter-spacing:0px;line-height:120%;opacity:1&quot;&gt;&lt;i&gt;У&lt;br/&gt;&lt;/i&gt;&lt;/font&gt;&lt;/div&gt;" tags="Фон" id="3eGt7si79daoKyPCbFKP-321">
          <mxCell style="verticalAlign=middle;align=center;overflow=width;vsdxID=3040;fillColor=none;gradientColor=none;shape=stencil(nZBLDoAgDERP0z3SIyjew0SURgSD+Lu9kMZoXLhwN9O+tukAlrNpJg1SzDH4QW/URgNYgZTkjA4UkwJUgGXng+6DX1zLfmoymdXo17xh5zmRJ6Q42BWCfc2oJfdAr+Yv+AP9Cb7OJ3H/2JG1HNGz/84klThPVCc=);strokeColor=none;points=[];labelBackgroundColor=none;rounded=0;html=1;whiteSpace=wrap;" parent="1" vertex="1">
            <mxGeometry x="2574" y="2014.4" width="56" height="16" as="geometry" />
          </mxCell>
        </UserObject>
        <UserObject label="&lt;div style=&quot;font-size: 1px&quot;&gt;&lt;p style=&quot;text-align:right;margin-left:0;margin-right:0;margin-top:0px;margin-bottom:0px;text-indent:0;vertical-align:middle;direction:ltr;&quot;&gt;&lt;font style=&quot;font-size:8.47px;font-family:Arial;color:#000000;direction:ltr;letter-spacing:0px;line-height:120%;opacity:1&quot;&gt;&lt;i&gt;Формат А4&lt;/i&gt;&lt;/font&gt;&lt;font style=&quot;font-size:8.47px;font-family:Arial;color:#000000;direction:ltr;letter-spacing:0px;line-height:120%;opacity:1&quot;&gt;&lt;i&gt;&lt;br/&gt;&lt;/i&gt;&lt;/font&gt;&lt;/p&gt;&lt;/div&gt;" tags="Фон" id="3eGt7si79daoKyPCbFKP-322">
          <mxCell style="verticalAlign=middle;align=right;overflow=width;vsdxID=3042;fillColor=none;gradientColor=none;shape=stencil(nZBLDoAgDERP0z3SIyjew0SURgSD+Lu9kMZoXLhwN9O+tukAlrNpJg1SzDH4QW/URgNYgZTkjA4UkwJUgGXng+6DX1zLfmoymdXo17xh5zmRJ6Q42BWCfc2oJfdAr+Yv+AP9Cb7OJ3H/2JG1HNGz/84klThPVCc=);strokeColor=none;strokeWidth=4;spacingTop=-1;spacingBottom=-1;spacingLeft=-1;spacingRight=-1;points=[];labelBackgroundColor=none;rounded=0;html=1;whiteSpace=wrap;" parent="1" vertex="1">
            <mxGeometry x="2719" y="2133.4" width="54" height="10" as="geometry" />
          </mxCell>
        </UserObject>
        <UserObject label="" tags="Фон" id="3eGt7si79daoKyPCbFKP-323">
          <mxCell style="vsdxID=3039;edgeStyle=none;startArrow=none;endArrow=none;startSize=3;endSize=3;strokeWidth=4;spacingTop=-2;spacingBottom=-2;spacingLeft=-2;spacingRight=-2;verticalAlign=middle;html=1;labelBackgroundColor=#ffffff;rounded=0;exitX=0.6381909547738693;exitY=1;exitDx=0;exitDy=0;exitPerimeter=0;entryX=1.0050251256281406;entryY=1;entryDx=0;entryDy=0;entryPerimeter=0;" parent="1" source="3eGt7si79daoKyPCbFKP-302" target="3eGt7si79daoKyPCbFKP-302" edge="1">
            <mxGeometry relative="1" as="geometry">
              <mxPoint as="offset" />
              <Array as="points" />
            </mxGeometry>
          </mxCell>
        </UserObject>
        <mxCell id="3eGt7si79daoKyPCbFKP-324" parent="1" vertex="1">
          <mxGeometry x="2034" y="1917.4" as="geometry" />
        </mxCell>
        <mxCell id="3eGt7si79daoKyPCbFKP-325" parent="1" vertex="1">
          <mxGeometry x="2034" y="1046.4" as="geometry" />
        </mxCell>
        <UserObject label="" tags="Фон" id="3eGt7si79daoKyPCbFKP-326">
          <mxCell style="vsdxID=358;edgeStyle=none;startArrow=none;endArrow=none;startSize=3;endSize=3;strokeWidth=4;spacingTop=-2;spacingBottom=-2;spacingLeft=-2;spacingRight=-2;verticalAlign=middle;html=1;labelBackgroundColor=#ffffff;rounded=0;" parent="1" source="3eGt7si79daoKyPCbFKP-324" target="3eGt7si79daoKyPCbFKP-325" edge="1">
            <mxGeometry relative="1" as="geometry">
              <Array as="points">
                <mxPoint x="2034" y="1917.4" />
                <mxPoint x="2034" y="1046" />
              </Array>
            </mxGeometry>
          </mxCell>
        </UserObject>
        <mxCell id="3eGt7si79daoKyPCbFKP-327" parent="1" vertex="1">
          <mxGeometry x="2719" y="1046.4" as="geometry" />
        </mxCell>
        <mxCell id="3eGt7si79daoKyPCbFKP-328" parent="1" vertex="1">
          <mxGeometry x="2719" y="1323.4" as="geometry" />
        </mxCell>
        <UserObject label="" tags="Фон" id="3eGt7si79daoKyPCbFKP-329">
          <mxCell style="vsdxID=362;edgeStyle=none;startArrow=none;endArrow=none;startSize=3;endSize=3;strokeWidth=4;spacingTop=-2;spacingBottom=-2;spacingLeft=-2;spacingRight=-2;verticalAlign=middle;html=1;labelBackgroundColor=#ffffff;rounded=0;" parent="1" source="3eGt7si79daoKyPCbFKP-327" target="3eGt7si79daoKyPCbFKP-328" edge="1">
            <mxGeometry relative="1" as="geometry">
              <Array as="points">
                <mxPoint x="2719" y="1046.4" />
                <mxPoint x="2718.8" y="1324.2" />
              </Array>
            </mxGeometry>
          </mxCell>
        </UserObject>
        <UserObject label="" tags="Соединительная_линия" id="3eGt7si79daoKyPCbFKP-330">
          <mxCell parent="1" vertex="1" visible="0">
            <mxGeometry x="3630" y="1010" as="geometry" />
          </mxCell>
        </UserObject>
        <mxCell id="3eGt7si79daoKyPCbFKP-331" value="" style="edgeStyle=orthogonalEdgeStyle;rounded=0;orthogonalLoop=1;jettySize=auto;html=1;" parent="1" target="3eGt7si79daoKyPCbFKP-334" edge="1">
          <mxGeometry relative="1" as="geometry">
            <mxPoint x="2202.5" y="1110" as="sourcePoint" />
          </mxGeometry>
        </mxCell>
        <mxCell id="3eGt7si79daoKyPCbFKP-334" value="&lt;font style=&quot;font-size: 10px;&quot;&gt;инициализируем массив символов&lt;br&gt;и получаем массив пикселей&lt;/font&gt;" style="whiteSpace=wrap;html=1;strokeWidth=2;" parent="1" vertex="1">
          <mxGeometry x="2142.5" y="1169" width="120" height="80" as="geometry" />
        </mxCell>
        <mxCell id="3eGt7si79daoKyPCbFKP-335" value="" style="edgeStyle=orthogonalEdgeStyle;rounded=0;orthogonalLoop=1;jettySize=auto;html=1;" parent="1" source="3eGt7si79daoKyPCbFKP-336" target="3eGt7si79daoKyPCbFKP-339" edge="1">
          <mxGeometry relative="1" as="geometry" />
        </mxCell>
        <mxCell id="3eGt7si79daoKyPCbFKP-336" value="&lt;div style=&quot;font-size: 10px;&quot;&gt;создаем файл для записи готового ascii-art&lt;/div&gt;" style="whiteSpace=wrap;html=1;strokeWidth=2;" parent="1" vertex="1">
          <mxGeometry x="2142.5" y="1260" width="120" height="80" as="geometry" />
        </mxCell>
        <mxCell id="3eGt7si79daoKyPCbFKP-360" style="edgeStyle=orthogonalEdgeStyle;rounded=0;orthogonalLoop=1;jettySize=auto;html=1;" parent="1" source="3eGt7si79daoKyPCbFKP-339" edge="1">
          <mxGeometry relative="1" as="geometry">
            <mxPoint x="2350" y="1430" as="targetPoint" />
            <Array as="points">
              <mxPoint x="2350" y="1410" />
            </Array>
          </mxGeometry>
        </mxCell>
        <mxCell id="3eGt7si79daoKyPCbFKP-361" style="edgeStyle=orthogonalEdgeStyle;rounded=0;orthogonalLoop=1;jettySize=auto;html=1;entryX=0.5;entryY=0;entryDx=0;entryDy=0;" parent="1" source="3eGt7si79daoKyPCbFKP-339" target="3eGt7si79daoKyPCbFKP-354" edge="1">
          <mxGeometry relative="1" as="geometry" />
        </mxCell>
        <mxCell id="3eGt7si79daoKyPCbFKP-339" value="&lt;font style=&quot;font-size: 10px;&quot;&gt;проверка на создание&lt;/font&gt;" style="rhombus;whiteSpace=wrap;html=1;strokeWidth=2;" parent="1" vertex="1">
          <mxGeometry x="2142.5" y="1370" width="120" height="80" as="geometry" />
        </mxCell>
        <mxCell id="3eGt7si79daoKyPCbFKP-340" value="да" style="text;html=1;align=center;verticalAlign=middle;resizable=0;points=[];autosize=1;strokeColor=none;fillColor=none;" parent="1" vertex="1">
          <mxGeometry x="2300" y="1350" width="40" height="30" as="geometry" />
        </mxCell>
        <mxCell id="3eGt7si79daoKyPCbFKP-341" value="&lt;div&gt;нет&lt;/div&gt;&lt;div&gt;&lt;br&gt;&lt;/div&gt;" style="text;html=1;align=center;verticalAlign=middle;resizable=0;points=[];autosize=1;strokeColor=none;fillColor=none;" parent="1" vertex="1">
          <mxGeometry x="2154" y="1453" width="40" height="40" as="geometry" />
        </mxCell>
        <mxCell id="3eGt7si79daoKyPCbFKP-342" value="" style="edgeStyle=orthogonalEdgeStyle;rounded=0;orthogonalLoop=1;jettySize=auto;html=1;" parent="1" source="3eGt7si79daoKyPCbFKP-343" target="3eGt7si79daoKyPCbFKP-345" edge="1">
          <mxGeometry relative="1" as="geometry" />
        </mxCell>
        <mxCell id="3eGt7si79daoKyPCbFKP-343" value="&lt;div style=&quot;font-size: 10px;&quot; align=&quot;center&quot;&gt;&lt;font style=&quot;font-size: 10px;&quot; face=&quot;Helvetica&quot;&gt;y=0 до&amp;nbsp;&lt;/font&gt;&lt;/div&gt;&lt;div align=&quot;center&quot; style=&quot;background-color: rgb(43, 43, 43); color: rgb(169, 183, 198); font-size: 10px;&quot;&gt;&lt;pre&gt;&lt;font face=&quot;WAEECEDVNg7ElJwHSm6N&quot; color=&quot;#000000&quot; style=&quot;background-color: rgb(255, 255, 255); font-size: 10px;&quot;&gt;image-&amp;gt;get_height()&lt;/font&gt;&lt;/pre&gt;&lt;/div&gt; " style="strokeWidth=2;html=1;shape=mxgraph.flowchart.loop_limit;whiteSpace=wrap;align=center;" parent="1" vertex="1">
          <mxGeometry x="2300" y="1430" width="120" height="80" as="geometry" />
        </mxCell>
        <mxCell id="3eGt7si79daoKyPCbFKP-344" value="" style="edgeStyle=orthogonalEdgeStyle;rounded=0;orthogonalLoop=1;jettySize=auto;html=1;" parent="1" source="3eGt7si79daoKyPCbFKP-345" target="3eGt7si79daoKyPCbFKP-347" edge="1">
          <mxGeometry relative="1" as="geometry" />
        </mxCell>
        <mxCell id="3eGt7si79daoKyPCbFKP-345" value="&lt;div style=&quot;font-size: 10px;&quot; align=&quot;center&quot;&gt;&lt;font style=&quot;font-size: 10px;&quot; face=&quot;Helvetica&quot;&gt;х=0 до&amp;nbsp;&lt;/font&gt;&lt;/div&gt;&lt;div align=&quot;center&quot; style=&quot;background-color: rgb(43, 43, 43); color: rgb(169, 183, 198); font-size: 10px;&quot;&gt;&lt;pre&gt;&lt;font face=&quot;zTe3mYyTC3EVqWTGpJD6&quot; color=&quot;#000000&quot; style=&quot;background-color: rgb(255, 255, 255); font-size: 10px;&quot;&gt;image-&amp;gt;get_width()&lt;/font&gt;&lt;/pre&gt;&lt;/div&gt; " style="strokeWidth=2;html=1;shape=mxgraph.flowchart.loop_limit;whiteSpace=wrap;align=center;" parent="1" vertex="1">
          <mxGeometry x="2300" y="1540" width="120" height="80" as="geometry" />
        </mxCell>
        <mxCell id="3eGt7si79daoKyPCbFKP-346" style="edgeStyle=orthogonalEdgeStyle;rounded=0;orthogonalLoop=1;jettySize=auto;html=1;" parent="1" source="3eGt7si79daoKyPCbFKP-347" target="3eGt7si79daoKyPCbFKP-348" edge="1">
          <mxGeometry relative="1" as="geometry" />
        </mxCell>
        <mxCell id="3eGt7si79daoKyPCbFKP-347" value="&lt;font style=&quot;font-size: 10px;&quot;&gt;вычисляем индекс в массиве символов&lt;br&gt;и получаем сам символ&lt;br&gt;и записываем его в файл&lt;/font&gt;" style="whiteSpace=wrap;html=1;strokeWidth=2;" parent="1" vertex="1">
          <mxGeometry x="2300" y="1640" width="120" height="80" as="geometry" />
        </mxCell>
        <mxCell id="3eGt7si79daoKyPCbFKP-366" value="" style="edgeStyle=orthogonalEdgeStyle;rounded=0;orthogonalLoop=1;jettySize=auto;html=1;" parent="1" source="3eGt7si79daoKyPCbFKP-348" target="3eGt7si79daoKyPCbFKP-356" edge="1">
          <mxGeometry relative="1" as="geometry" />
        </mxCell>
        <mxCell id="3eGt7si79daoKyPCbFKP-348" value="" style="strokeWidth=1;html=1;shape=mxgraph.flowchart.loop_limit;whiteSpace=wrap;rotation=-180;" parent="1" vertex="1">
          <mxGeometry x="2300" y="1753.5" width="120" height="80" as="geometry" />
        </mxCell>
        <mxCell id="3eGt7si79daoKyPCbFKP-349" value="&lt;font style=&quot;font-size: 10px;&quot;&gt;конец цикла по х&lt;br&gt;&lt;/font&gt;" style="text;html=1;strokeColor=none;fillColor=none;align=center;verticalAlign=middle;whiteSpace=wrap;rounded=0;" parent="1" vertex="1">
          <mxGeometry x="2300" y="1778.5" width="120" height="30" as="geometry" />
        </mxCell>
        <mxCell id="y3boa7VS3bqcjVX21_CH-269" style="edgeStyle=orthogonalEdgeStyle;rounded=0;orthogonalLoop=1;jettySize=auto;html=1;entryX=0.5;entryY=0;entryDx=0;entryDy=0;" edge="1" parent="1" source="3eGt7si79daoKyPCbFKP-351" target="3eGt7si79daoKyPCbFKP-359">
          <mxGeometry relative="1" as="geometry" />
        </mxCell>
        <mxCell id="3eGt7si79daoKyPCbFKP-351" value="" style="strokeWidth=1;html=1;shape=mxgraph.flowchart.loop_limit;whiteSpace=wrap;rotation=-180;" parent="1" vertex="1">
          <mxGeometry x="2450.75" y="1190" width="120" height="80" as="geometry" />
        </mxCell>
        <mxCell id="3eGt7si79daoKyPCbFKP-352" value="&lt;font style=&quot;font-size: 10px;&quot;&gt;конец цикла по у&lt;br&gt;&lt;/font&gt;" style="text;html=1;strokeColor=none;fillColor=none;align=center;verticalAlign=middle;whiteSpace=wrap;rounded=0;" parent="1" vertex="1">
          <mxGeometry x="2454" y="1206.5" width="120" height="30" as="geometry" />
        </mxCell>
        <mxCell id="3eGt7si79daoKyPCbFKP-354" value="А" style="ellipse;whiteSpace=wrap;html=1;" parent="1" vertex="1">
          <mxGeometry x="2182.5" y="1530" width="40" height="40" as="geometry" />
        </mxCell>
        <mxCell id="3eGt7si79daoKyPCbFKP-356" value="А" style="ellipse;whiteSpace=wrap;html=1;" parent="1" vertex="1">
          <mxGeometry x="2340" y="1860" width="40" height="40" as="geometry" />
        </mxCell>
        <mxCell id="3eGt7si79daoKyPCbFKP-357" style="edgeStyle=orthogonalEdgeStyle;rounded=0;orthogonalLoop=1;jettySize=auto;html=1;" parent="1" source="3eGt7si79daoKyPCbFKP-358" edge="1">
          <mxGeometry relative="1" as="geometry">
            <mxPoint x="2510.75" y="1190" as="targetPoint" />
          </mxGeometry>
        </mxCell>
        <mxCell id="3eGt7si79daoKyPCbFKP-358" value="А" style="ellipse;whiteSpace=wrap;html=1;" parent="1" vertex="1">
          <mxGeometry x="2490" y="1100" width="41.5" height="40" as="geometry" />
        </mxCell>
        <mxCell id="3eGt7si79daoKyPCbFKP-359" value="&lt;font style=&quot;font-size: 10px;&quot;&gt;закрытие файла&lt;/font&gt;" style="rounded=0;whiteSpace=wrap;html=1;" parent="1" vertex="1">
          <mxGeometry x="2450.75" y="1310" width="120" height="80" as="geometry" />
        </mxCell>
        <mxCell id="y3boa7VS3bqcjVX21_CH-276" style="edgeStyle=orthogonalEdgeStyle;rounded=0;orthogonalLoop=1;jettySize=auto;html=1;exitX=0.5;exitY=1;exitDx=0;exitDy=0;entryX=0.5;entryY=0;entryDx=0;entryDy=0;entryPerimeter=0;" edge="1" parent="1" source="3eGt7si79daoKyPCbFKP-359">
          <mxGeometry relative="1" as="geometry">
            <mxPoint x="2510.75" y="1430" as="targetPoint" />
          </mxGeometry>
        </mxCell>
        <mxCell id="y3boa7VS3bqcjVX21_CH-278" value="&lt;font style=&quot;font-size: 10px;&quot;&gt;Начало&lt;/font&gt;" style="whiteSpace=wrap;html=1;rounded=1;arcSize=50;align=center;verticalAlign=middle;strokeWidth=1;autosize=1;spacing=4;treeFolding=1;treeMoving=1;newEdgeStyle={&quot;edgeStyle&quot;:&quot;entityRelationEdgeStyle&quot;,&quot;startArrow&quot;:&quot;none&quot;,&quot;endArrow&quot;:&quot;none&quot;,&quot;segment&quot;:10,&quot;curved&quot;:1,&quot;sourcePerimeterSpacing&quot;:0,&quot;targetPerimeterSpacing&quot;:0};" vertex="1" parent="1">
          <mxGeometry x="2142.5" y="1070" width="120" height="40" as="geometry" />
        </mxCell>
        <mxCell id="y3boa7VS3bqcjVX21_CH-281" value="конец" style="whiteSpace=wrap;html=1;rounded=1;arcSize=50;align=center;verticalAlign=middle;strokeWidth=1;autosize=1;spacing=4;treeFolding=1;treeMoving=1;newEdgeStyle={&quot;edgeStyle&quot;:&quot;entityRelationEdgeStyle&quot;,&quot;startArrow&quot;:&quot;none&quot;,&quot;endArrow&quot;:&quot;none&quot;,&quot;segment&quot;:10,&quot;curved&quot;:1,&quot;sourcePerimeterSpacing&quot;:0,&quot;targetPerimeterSpacing&quot;:0};" vertex="1" parent="1">
          <mxGeometry x="2450.75" y="1430" width="120" height="40" as="geometry" />
        </mxCell>
      </root>
    </mxGraphModel>
  </diagram>
</mxfile>
